<svg width="150" height="150" viewBox="0 0 150 150" fill="none" xmlns="http://www.w3.org/2000/svg">
<rect width="150" height="150" rx="75" fill="#202020"/>
<path d="M48.9349 96.6325C51.1696 96.6325 52.9927 96.309 54.4041 95.6622C55.8742 94.9565 56.9916 94.045 57.7561 92.9276C58.5794 91.7515 59.1381 90.4283 59.4321 88.9581C59.7261 87.4291 59.8732 85.8707 59.8732 84.2829V84.0302C59.8732 83.1636 60.2701 82.4893 61.1288 82.3724C63.8964 81.9959 70.308 81.691 70.9878 82.6951V82.6951C71.6074 83.6103 71.528 84.927 71.4791 86.0312C71.1909 92.5396 69.2629 97.6317 65.6951 101.308C61.8726 105.248 56.2859 107.218 48.9349 107.218C41.878 107.218 36.2913 105.071 32.1748 100.778C28.0583 96.4855 26 90.2225 26 81.9894V68.2284C26 64.2883 26.5293 60.7599 27.5878 57.6431C28.6463 54.4675 30.1753 51.8211 32.1748 49.7041C34.1743 47.5282 36.5854 45.8816 39.4081 44.7642C42.2309 43.5881 45.4065 43 48.9349 43C52.581 43 55.8154 43.5293 58.6382 44.5878C61.461 45.6463 63.8133 47.1753 65.6951 49.1748C67.6358 51.1743 69.0765 53.5854 70.0175 56.4081C70.9581 59.0641 70.9877 62.0324 70.9879 65.3132C70.9879 65.7197 70.8756 66.1185 70.6636 66.4654V66.4654C70.2623 67.1222 69.548 67.5227 68.7783 67.5227H61.461C60.584 67.5227 59.8732 66.8119 59.8732 65.9349V65.9349C59.8732 64.4648 59.6967 62.9946 59.3439 61.5244C58.991 60.0542 58.403 58.731 57.5797 57.5549C56.7564 56.3787 55.639 55.4378 54.2276 54.7321C52.8162 53.9676 51.052 53.5854 48.9349 53.5854C46.9943 53.5854 45.3183 53.9676 43.9069 54.7321C42.4955 55.4378 41.3194 56.4375 40.3784 57.7313C39.4375 58.9662 38.7318 60.4364 38.2614 62.1419C37.8497 63.7885 37.6439 65.5233 37.6439 67.3463V82.8715C37.6439 84.871 37.8497 86.7234 38.2614 88.4288C38.673 90.0754 39.3199 91.5162 40.202 92.7512C41.0841 93.9861 42.2309 94.9565 43.6423 95.6622C45.1125 96.309 46.8767 96.6325 48.9349 96.6325Z" fill="#FBFBFB"/>
<path d="M80.5415 48.235C80.5415 46.0258 82.3323 44.235 84.5415 44.235H121C123.209 44.235 125 46.0258 125 48.235V51.3496C125 53.5587 123.209 55.3496 121 55.3496H112.593C110.384 55.3496 108.593 57.1404 108.593 59.3496V101.983C108.593 104.192 106.802 105.983 104.593 105.983H100.949C98.7397 105.983 96.9488 104.192 96.9488 101.983V59.3496C96.9488 57.1404 95.1579 55.3496 92.9488 55.3496H84.5415C82.3323 55.3496 80.5415 53.5587 80.5415 51.3496V48.235Z" fill="#FBFBFB"/>
</svg>
